<svg width="24" height="24" viewBox="0 0 24 24" fill="none" xmlns="http://www.w3.org/2000/svg">
<path d="M21.575 22.2524C21.4872 22.2535 21.4001 22.2375 21.3185 22.2052C18.4526 21.0441 15.2474 21.0441 12.3815 22.2052C12.2159 22.2661 12.0341 22.2661 11.8685 22.2052C9.00264 21.0441 5.79737 21.0441 2.93151 22.2052C2.82872 22.2474 2.71709 22.2636 2.60654 22.2523C2.49599 22.2411 2.38993 22.2027 2.29777 22.1406C2.20562 22.0785 2.13023 21.9946 2.07828 21.8963C2.02634 21.7981 1.99945 21.6886 2.00001 21.5774V3.59545C1.99934 3.46104 2.03881 3.32948 2.11337 3.21764C2.18793 3.10581 2.29418 3.01877 2.41851 2.9677C5.52592 1.71335 8.9921 1.6772 12.125 2.86645C15.2579 1.6772 18.7241 1.71335 21.8315 2.9677C21.9558 3.01877 22.0621 3.10581 22.1366 3.21764C22.2112 3.32948 22.2507 3.46104 22.25 3.59545V21.5774C22.25 21.7565 22.1789 21.9281 22.0523 22.0547C21.9257 22.1813 21.754 22.2524 21.575 22.2524ZM7.4 19.9844C9.01431 19.9841 10.6153 20.2769 12.125 20.8484C14.9398 19.7829 18.032 19.6997 20.9 20.6122V4.0612C18.1381 3.06011 15.1033 3.11782 12.3815 4.2232C12.2159 4.28415 12.0341 4.28415 11.8685 4.2232C9.14592 3.12164 6.1125 3.06395 3.35001 4.0612V20.6122C4.65953 20.1952 6.0257 19.9835 7.4 19.9844Z" fill="#7C7C7C"/>
<path d="M12.1252 22.2525C11.9462 22.2525 11.7745 22.1814 11.6479 22.0548C11.5213 21.9282 11.4502 21.7565 11.4502 21.5775V3.60225C11.4502 3.42322 11.5213 3.25154 11.6479 3.12495C11.7745 2.99836 11.9462 2.92725 12.1252 2.92725C12.3042 2.92725 12.4759 2.99836 12.6025 3.12495C12.7291 3.25154 12.8002 3.42322 12.8002 3.60225V21.5775C12.8002 21.7565 12.7291 21.9282 12.6025 22.0548C12.4759 22.1814 12.3042 22.2525 12.1252 22.2525Z" fill="#7C7C7C"/>
</svg>
