<svg width="24" height="24" viewBox="0 0 24 24" fill="none" xmlns="http://www.w3.org/2000/svg">
<path d="M19.5 9.375C19.5 7.38588 18.7098 5.47822 17.3033 4.0717C15.8968 2.66518 13.9891 1.875 12 1.875C10.0353 1.87465 8.14895 2.64523 6.74645 4.02108C5.34395 5.39693 4.53733 7.26818 4.5 9.2325C3.90326 9.2325 3.33097 9.46955 2.90901 9.89151C2.48705 10.3135 2.25 10.8858 2.25 11.4825V14.4825C2.25 15.0792 2.48705 15.6515 2.90901 16.0735C3.33097 16.4954 3.90326 16.7325 4.5 16.7325H6C6.59674 16.7325 7.16903 16.4954 7.59099 16.0735C8.01295 15.6515 8.25 15.0792 8.25 14.4825V11.4825C8.25 10.8858 8.01295 10.3135 7.59099 9.89151C7.16903 9.46955 6.59674 9.2325 6 9.2325C6.03721 7.66603 6.68575 6.17626 7.80696 5.08168C8.92817 3.9871 10.4331 3.37456 12 3.375C13.5913 3.375 15.1174 4.00714 16.2426 5.13236C17.3679 6.25758 18 7.7837 18 9.375C17.4033 9.375 16.831 9.61205 16.409 10.034C15.9871 10.456 15.75 11.0283 15.75 11.625V14.625C15.752 15.1209 15.9178 15.6023 16.2216 15.9943C16.5254 16.3862 16.9502 16.6669 17.43 16.7925C16.863 17.8225 15.9155 18.5897 14.79 18.93C14.6098 18.5406 14.322 18.2109 13.9605 17.9796C13.5991 17.7484 13.1791 17.6254 12.75 17.625H11.25C10.6533 17.625 10.081 17.8621 9.65901 18.284C9.23705 18.706 9 19.2783 9 19.875C9 20.4717 9.23705 21.044 9.65901 21.466C10.081 21.8879 10.6533 22.125 11.25 22.125H12.75C13.2469 22.1226 13.7291 21.9557 14.1212 21.6504C14.5133 21.3451 14.7933 20.9186 14.9175 20.4375C15.8389 20.2126 16.6938 19.7724 17.4121 19.1532C18.1305 18.5339 18.6918 17.7532 19.05 16.875H19.5C20.0967 16.875 20.669 16.6379 21.091 16.216C21.5129 15.794 21.75 15.2217 21.75 14.625V11.625C21.75 11.0283 21.5129 10.456 21.091 10.034C20.669 9.61205 20.0967 9.375 19.5 9.375ZM6.75 11.4825V14.4825C6.75 14.6814 6.67098 14.8722 6.53033 15.0128C6.38968 15.1535 6.19891 15.2325 6 15.2325H4.5C4.30109 15.2325 4.11032 15.1535 3.96967 15.0128C3.82902 14.8722 3.75 14.6814 3.75 14.4825V11.4825C3.75 11.2836 3.82902 11.0928 3.96967 10.9522C4.11032 10.8115 4.30109 10.7325 4.5 10.7325H6C6.19891 10.7325 6.38968 10.8115 6.53033 10.9522C6.67098 11.0928 6.75 11.2836 6.75 11.4825ZM12.75 20.625H11.25C11.0511 20.625 10.8603 20.546 10.7197 20.4053C10.579 20.2647 10.5 20.0739 10.5 19.875C10.5 19.6761 10.579 19.4853 10.7197 19.3447C10.8603 19.204 11.0511 19.125 11.25 19.125H12.75C12.9489 19.125 13.1397 19.204 13.2803 19.3447C13.421 19.4853 13.5 19.6761 13.5 19.875C13.5 20.0739 13.421 20.2647 13.2803 20.4053C13.1397 20.546 12.9489 20.625 12.75 20.625ZM20.25 14.625C20.25 14.8239 20.171 15.0147 20.0303 15.1553C19.8897 15.296 19.6989 15.375 19.5 15.375H18C17.8011 15.375 17.6103 15.296 17.4697 15.1553C17.329 15.0147 17.25 14.8239 17.25 14.625V11.625C17.25 11.4261 17.329 11.2353 17.4697 11.0947C17.6103 10.954 17.8011 10.875 18 10.875H19.5C19.6989 10.875 19.8897 10.954 20.0303 11.0947C20.171 11.2353 20.25 11.4261 20.25 11.625V14.625Z" fill="#0080FF"/>
</svg>
