<svg width="140" height="121" viewBox="0 0 140 121" fill="none" xmlns="http://www.w3.org/2000/svg">
<path d="M86.4129 97.2525L86.4126 97.2526C69.1311 101.569 50.8663 101.569 33.5897 97.2526L33.5895 97.2525C28.2394 95.9137 24.0886 91.7603 22.7524 86.4103C19.6718 74.0891 18.8313 61.2695 20.1436 48.6622L20.1867 48.2484L20.6014 48.2156C46.7727 46.143 73.2281 46.143 99.3994 48.2156L99.8142 48.2484L99.8572 48.6622C101.169 61.2694 100.328 74.089 97.2475 86.4101L86.4129 97.2525ZM86.4129 97.2525C91.7605 95.9137 95.9112 91.7603 97.2475 86.4103L86.4129 97.2525ZM89.4999 13.9505V14.3193L89.8522 14.4282C97.8147 16.8903 103.945 23.2639 105.98 31.4102L105.98 31.4102C110.655 50.1151 110.655 69.8854 105.98 88.5898L105.98 88.5899C103.837 97.1708 97.1773 103.837 88.5948 105.98L88.5946 105.98C79.2424 108.318 69.6206 109.486 59.9999 109.486C50.3792 109.486 40.7595 108.318 31.4077 105.98L31.4075 105.98C22.8225 103.837 16.1628 97.1708 14.02 88.5899L14.02 88.5898C9.3449 69.8849 9.3449 50.1146 14.02 31.4102L14.02 31.4101C16.1628 22.8297 22.8225 16.1628 31.405 14.0206L31.4053 14.0205C32.2358 13.8127 33.0667 13.6411 33.9092 13.4671C34.3049 13.3853 34.7033 13.3031 35.1054 13.2162L35.4999 13.1311V12.7275V10C35.4999 7.51281 37.5149 5.5 39.9999 5.5C42.4849 5.5 44.4999 7.51281 44.4999 10V10.976V11.5436L45.063 11.472C56.6369 10.0008 68.4088 10.2716 79.9157 12.2374L80.4999 12.3372V11.7445V10C80.4999 7.51281 82.5149 5.5 84.9999 5.5C87.4849 5.5 89.4999 7.51281 89.4999 10V13.9505ZM33.5873 22.7474L33.587 22.7475C28.2393 24.0863 24.0886 28.2397 22.7513 33.5898L22.7513 33.5899C22.3441 35.2209 22.0129 36.8662 21.6847 38.4979L21.5548 39.1441L22.2121 39.0951C47.3258 37.2245 72.673 37.2245 97.7868 39.0951L98.4438 39.1441L98.3141 38.4981C97.9865 36.8658 97.6553 35.2205 97.2475 33.5899C96.0645 28.8522 92.615 25.183 88.1628 23.4443L87.9011 23.342L87.6777 23.5125C86.8982 24.107 86.002 24.5 84.9999 24.5C83.1391 24.5 81.5416 23.3705 80.8567 21.7571L80.7524 21.5114L80.4902 21.4614C73.7364 20.1721 66.87 19.51 59.9999 19.51C54.8809 19.51 49.7704 19.9105 44.7041 20.6254L44.3659 20.6731L44.2873 21.0055C43.8141 23.0073 42.1108 24.5 39.9999 24.5C38.469 24.5 37.1692 23.68 36.3477 22.4688L36.156 22.1862L35.823 22.262C35.5405 22.3262 35.2389 22.3883 34.9313 22.4517C34.4825 22.5441 34.021 22.6391 33.5873 22.7474Z" fill="#0080FF" stroke="#0080FF"/>
<g clip-path="url(#clip0_1_4093)">
<path d="M123.172 104.172C123.416 103.928 123.696 103.738 123.988 103.574L119.436 99.02C119.046 98.63 118.412 98.63 118.022 99.02C117.632 99.412 117.632 100.044 118.022 100.436L122.564 104.978C122.736 104.692 122.928 104.414 123.172 104.172Z" fill="#71B2FF"/>
<path d="M133 119C131.666 119 130.41 118.48 129.464 117.536L122.464 110.536C121.52 109.59 121 108.336 121 107C121 105.664 121.52 104.41 122.464 103.464C124.276 101.652 127.722 101.652 129.534 103.464L136.534 110.464C137.48 111.41 138 112.664 138 114C138 115.336 137.48 116.59 136.536 117.536C135.592 118.482 134.334 119 133 119ZM126 104.04C125.186 104.04 124.414 104.344 123.878 104.88C123.312 105.446 123 106.2 123 107C123 107.8 123.312 108.554 123.878 109.122L130.878 116.122C132.012 117.254 133.986 117.254 135.12 116.122C135.688 115.554 136 114.8 136 114C136 113.2 135.688 112.446 135.122 111.878L128.122 104.878C127.586 104.344 126.814 104.04 126 104.04Z" fill="#71B2FF"/>
<path d="M102 107C88.766 107 78 96.234 78 83C78 69.766 88.766 59 102 59C115.234 59 126 69.766 126 83C126 96.234 115.234 107 102 107ZM102 61C89.87 61 80 70.87 80 83C80 95.13 89.87 105 102 105C114.13 105 124 95.13 124 83C124 70.87 114.13 61 102 61Z" fill="#71B2FF"/>
<path fill-rule="evenodd" clip-rule="evenodd" d="M122.28 89.5964C118.482 100.555 106.52 106.359 95.5611 102.561C84.6027 98.763 78.7982 86.8004 82.5964 75.842C86.3946 64.8836 98.3572 59.079 109.316 62.8772C120.274 66.6754 126.079 78.638 122.28 89.5964ZM117.773 82.7989C118.294 82.7542 118.68 82.2954 118.636 81.7741C118.591 81.2528 118.132 80.8664 117.611 80.911C117.09 80.9556 116.703 81.4144 116.748 81.9357C116.793 82.4571 117.251 82.8435 117.773 82.7989ZM100.881 99.6891C100.926 100.21 101.385 100.597 101.906 100.552C109.852 99.8719 116.312 94.2091 117.985 86.4573C118.096 85.9458 117.769 85.4432 117.258 85.3329C116.746 85.217 116.242 85.5473 116.131 86.0588C114.637 92.989 108.856 98.0555 101.744 98.6643C101.223 98.7089 100.836 99.168 100.881 99.6891Z" fill="#F4F4F4"/>
</g>
<defs>
<clipPath id="clip0_1_4093">
<rect width="64" height="64" fill="white" transform="translate(76 57)"/>
</clipPath>
</defs>
</svg>
