<svg width="25" height="24" viewBox="0 0 25 24" fill="none" xmlns="http://www.w3.org/2000/svg">
<path d="M5.02176 21.7297C4.71987 21.7299 4.42103 21.6693 4.14304 21.5515C3.86505 21.4338 3.6136 21.2613 3.40365 21.0444C3.19371 20.8274 3.02957 20.5705 2.92101 20.2888C2.81245 20.0071 2.7617 19.7064 2.77176 19.4047L2.91426 15.0727C2.94364 14.1207 3.33592 13.2159 4.01076 12.5437L11.084 5.47494C11.2255 5.33832 11.4149 5.26272 11.6116 5.26443C11.8082 5.26614 11.9963 5.34502 12.1354 5.48407C12.2744 5.62313 12.3533 5.81124 12.355 6.00789C12.3567 6.20454 12.2811 6.39399 12.1445 6.53544L5.07501 13.6064C4.66988 14.0096 4.43429 14.5524 4.41651 15.1237L4.27401 19.4549C4.27044 19.5575 4.28812 19.6597 4.32594 19.755C4.36375 19.8504 4.42089 19.937 4.49376 20.0092C4.56535 20.0834 4.65198 20.1413 4.74784 20.1792C4.8437 20.2171 4.94656 20.2341 5.04951 20.2289L9.38001 20.0872C9.9511 20.0693 10.4938 19.834 10.8973 19.4294L17.972 12.3547C18.1135 12.2181 18.3029 12.1425 18.4996 12.1442C18.6962 12.1459 18.8843 12.2248 19.0234 12.3638C19.1624 12.5029 19.2413 12.691 19.243 12.8876C19.2447 13.0843 19.1691 13.2737 19.0325 13.4152L11.954 20.4899C11.2816 21.1645 10.377 21.5568 9.42501 21.5864L5.09451 21.7282L5.02176 21.7297Z" fill="#13E4EA"/>
<path d="M5.02078 21.7298C4.71889 21.73 4.42005 21.6694 4.14206 21.5517C3.86407 21.4339 3.61262 21.2614 3.40268 21.0445C3.19273 20.8276 3.0286 20.5706 2.92004 20.2889C2.81148 20.0072 2.76072 19.7065 2.77078 19.4048L2.91328 15.0751C2.94289 14.1231 3.33514 13.2184 4.00978 12.5461L11.0845 5.47506C11.1537 5.40343 11.2365 5.34629 11.328 5.30698C11.4195 5.26768 11.5179 5.24699 11.6175 5.24612C11.7171 5.24526 11.8158 5.26423 11.908 5.30194C12.0002 5.33965 12.0839 5.39534 12.1543 5.46576C12.2247 5.53618 12.2804 5.61992 12.3181 5.71209C12.3559 5.80427 12.3748 5.90303 12.374 6.00261C12.3731 6.1022 12.3524 6.20061 12.3131 6.29211C12.2738 6.38362 12.2167 6.46637 12.145 6.53556L5.07028 13.6066C4.6658 14.0098 4.43053 14.5522 4.41253 15.1231L4.27078 19.4551C4.26702 19.5577 4.2846 19.6601 4.32243 19.7556C4.36025 19.8511 4.4175 19.9378 4.49053 20.0101C4.56378 20.0815 4.65048 20.1378 4.74562 20.1755C4.84077 20.2132 4.94245 20.2317 5.04478 20.2298L9.37603 20.0873C9.9473 20.0695 10.4901 19.8339 10.8933 19.4288L17.968 12.3556C18.1095 12.2189 18.2989 12.1433 18.4956 12.1451C18.6922 12.1468 18.8803 12.2256 19.0194 12.3647C19.1585 12.5038 19.2373 12.6919 19.239 12.8885C19.2407 13.0852 19.1651 13.2746 19.0285 13.4161L11.9538 20.4893C11.2818 21.1644 10.3769 21.5567 9.42478 21.5858L5.09278 21.7283C5.06953 21.7298 5.04553 21.7298 5.02078 21.7298Z" fill="#0080FF"/>
<path d="M18.5001 13.6372C18.4015 13.6372 18.3038 13.6179 18.2127 13.5802C18.1216 13.5425 18.0388 13.4872 17.9691 13.4174L11.0834 6.53017C10.9428 6.38952 10.8638 6.19879 10.8638 5.99992C10.8638 5.80104 10.9428 5.61031 11.0834 5.46967L12.9644 3.58867C13.8083 2.74482 14.9528 2.27075 16.1462 2.27075C17.3397 2.27075 18.4842 2.74482 19.3281 3.58867L20.9114 5.17492C21.7552 6.01882 22.2293 7.16337 22.2293 8.35679C22.2293 9.55021 21.7552 10.6948 20.9114 11.5387L19.0304 13.4174C18.8897 13.5581 18.699 13.6371 18.5001 13.6372ZM12.6741 5.99992L18.5001 11.8267L19.8501 10.4767C20.1287 10.1981 20.3497 9.86736 20.5005 9.50338C20.6512 9.13939 20.7288 8.74927 20.7288 8.35529C20.7288 7.96131 20.6512 7.57119 20.5005 7.2072C20.3497 6.84322 20.1287 6.51249 19.8501 6.23392L18.2676 4.64992C17.6958 4.10497 16.9361 3.80099 16.1462 3.80099C15.3563 3.80099 14.5967 4.10497 14.0249 4.64992L12.6741 5.99992Z" fill="#0080FF"/>
</svg>
