<svg width="64" height="64" viewBox="0 0 64 64" fill="none" xmlns="http://www.w3.org/2000/svg">
<g filter="url(#filter0_d_24_2034)">
<rect x="8" y="4" width="48" height="48" rx="24" fill="#F6F6F6"/>
<g clip-path="url(#clip0_24_2034)">
<path d="M32 44C40.8366 44 48 36.8366 48 28C48 19.1634 40.8366 12 32 12C23.1634 12 16 19.1634 16 28C16 36.8366 23.1634 44 32 44Z" fill="#3C5A9A"/>
<path d="M37.2018 16.9111H33.6574C31.5541 16.9111 29.2146 17.7958 29.2146 20.8447C29.2248 21.907 29.2146 22.9245 29.2146 24.0695H26.7812V27.9416H29.2899V39.0888H33.8995V27.8681H36.9421L37.2174 24.0587H33.8201C33.8201 24.0587 33.8277 22.3641 33.8201 21.8719C33.8201 20.6671 35.0738 20.7361 35.1492 20.7361C35.7458 20.7361 36.9058 20.7378 37.2036 20.7361V16.9111H37.2018Z" fill="white"/>
</g>
</g>
<defs>
<filter id="filter0_d_24_2034" x="0" y="0" width="64" height="64" filterUnits="userSpaceOnUse" color-interpolation-filters="sRGB">
<feFlood flood-opacity="0" result="BackgroundImageFix"/>
<feColorMatrix in="SourceAlpha" type="matrix" values="0 0 0 0 0 0 0 0 0 0 0 0 0 0 0 0 0 0 127 0" result="hardAlpha"/>
<feOffset dy="4"/>
<feGaussianBlur stdDeviation="4"/>
<feComposite in2="hardAlpha" operator="out"/>
<feColorMatrix type="matrix" values="0 0 0 0 0.730208 0 0 0 0 0.730208 0 0 0 0 0.730208 0 0 0 0.16 0"/>
<feBlend mode="normal" in2="BackgroundImageFix" result="effect1_dropShadow_24_2034"/>
<feBlend mode="normal" in="SourceGraphic" in2="effect1_dropShadow_24_2034" result="shape"/>
</filter>
<clipPath id="clip0_24_2034">
<rect width="32" height="32" fill="white" transform="translate(16 12)"/>
</clipPath>
</defs>
</svg>
