<svg width="48" height="48" viewBox="0 0 48 48" fill="none" xmlns="http://www.w3.org/2000/svg">
<g filter="url(#filter0_b_1_4492)">
<rect width="48" height="48" rx="24" fill="#E7E7E7"/>
<path d="M24 25C24.5523 25 25 24.5523 25 24C25 23.4477 24.5523 23 24 23C23.4477 23 23 23.4477 23 24C23 24.5523 23.4477 25 24 25Z" fill="#242424"/>
<path d="M28 25C28.5523 25 29 24.5523 29 24C29 23.4477 28.5523 23 28 23C27.4477 23 27 23.4477 27 24C27 24.5523 27.4477 25 28 25Z" fill="#242424"/>
<path d="M20 25C20.5523 25 21 24.5523 21 24C21 23.4477 20.5523 23 20 23C19.4477 23 19 23.4477 19 24C19 24.5523 19.4477 25 20 25Z" fill="#242424"/>
<path d="M31.0701 16.93C29.4293 15.2785 27.2638 14.2512 24.9467 14.0253C22.6297 13.7993 20.3065 14.3888 18.3775 15.6922C16.4485 16.9955 15.0348 18.931 14.3799 21.165C13.725 23.399 13.8701 25.7915 14.7901 27.93C14.886 28.1288 14.9175 28.3525 14.8801 28.57L14.0001 32.8C13.9662 32.9622 13.9731 33.1303 14.0203 33.2891C14.0674 33.4479 14.1533 33.5926 14.2701 33.71C14.3659 33.8051 14.48 33.8799 14.6055 33.9297C14.7309 33.9795 14.8652 34.0035 15.0001 34H15.2001L19.4801 33.14C19.6976 33.1139 19.9182 33.1449 20.1201 33.23C22.2586 34.15 24.6511 34.2951 26.8851 33.6403C29.1191 32.9854 31.0546 31.5716 32.358 29.6426C33.6613 27.7137 34.2508 25.3904 34.0249 23.0734C33.7989 20.7564 32.7716 18.5908 31.1201 16.95L31.0701 16.93ZM31.9001 25.29C31.7046 26.484 31.2408 27.6181 30.5437 28.6069C29.8465 29.5958 28.9342 30.4136 27.8753 30.9989C26.8164 31.5842 25.6385 31.9216 24.4303 31.9859C23.2222 32.0502 22.0151 31.8396 20.9001 31.37C20.5047 31.2018 20.0798 31.1135 19.6501 31.11C19.4624 31.1113 19.2751 31.1281 19.0901 31.16L16.2701 31.73L16.8401 28.91C16.9536 28.2993 16.8805 27.6685 16.6301 27.1C16.1605 25.985 15.9499 24.778 16.0142 23.5698C16.0785 22.3616 16.416 21.1838 17.0013 20.1249C17.5865 19.066 18.4044 18.1536 19.3932 17.4565C20.3821 16.7593 21.5161 16.2955 22.7101 16.1C23.9634 15.8943 25.2476 15.99 26.4566 16.3791C27.6656 16.7682 28.7645 17.4395 29.6626 18.3376C30.5606 19.2356 31.232 20.3346 31.6211 21.5435C32.0101 22.7525 32.1058 24.0367 31.9001 25.29Z" fill="#242424"/>
<circle cx="33" cy="18" r="6" fill="#2A75AE"/>
</g>
<defs>
<filter id="filter0_b_1_4492" x="-20" y="-20" width="88" height="88" filterUnits="userSpaceOnUse" color-interpolation-filters="sRGB">
<feFlood flood-opacity="0" result="BackgroundImageFix"/>
<feGaussianBlur in="BackgroundImageFix" stdDeviation="10"/>
<feComposite in2="SourceAlpha" operator="in" result="effect1_backgroundBlur_1_4492"/>
<feBlend mode="normal" in="SourceGraphic" in2="effect1_backgroundBlur_1_4492" result="shape"/>
</filter>
</defs>
</svg>
