<svg width="22" height="22" viewBox="0 0 22 22" fill="none" xmlns="http://www.w3.org/2000/svg">
<path d="M11 12C11.5523 12 12 11.5523 12 11C12 10.4477 11.5523 10 11 10C10.4477 10 10 10.4477 10 11C10 11.5523 10.4477 12 11 12Z" fill="#242424"/>
<path d="M15 12C15.5523 12 16 11.5523 16 11C16 10.4477 15.5523 10 15 10C14.4477 10 14 10.4477 14 11C14 11.5523 14.4477 12 15 12Z" fill="#242424"/>
<path d="M7 12C7.55228 12 8 11.5523 8 11C8 10.4477 7.55228 10 7 10C6.44772 10 6 10.4477 6 11C6 11.5523 6.44772 12 7 12Z" fill="#242424"/>
<path d="M18.0701 3.93002C16.4293 2.27852 14.2638 1.25124 11.9467 1.02526C9.62972 0.799293 7.30647 1.3888 5.3775 2.69215C3.44854 3.99551 2.03475 5.93103 1.37988 8.16503C0.725011 10.399 0.870093 12.7915 1.79012 14.93C1.88601 15.1288 1.91747 15.3525 1.88012 15.57L1.00012 19.8C0.966214 19.9622 0.973138 20.1303 1.02027 20.2891C1.06739 20.4479 1.15325 20.5926 1.27012 20.71C1.36592 20.8051 1.47999 20.8799 1.60545 20.9297C1.73091 20.9795 1.86516 21.0035 2.00012 21H2.20012L6.48012 20.14C6.69765 20.1139 6.91824 20.1449 7.12012 20.23C9.25862 21.15 11.6511 21.2951 13.8851 20.6403C16.1191 19.9854 18.0546 18.5716 19.358 16.6426C20.6613 14.7137 21.2508 12.3904 21.0249 10.0734C20.7989 7.75638 19.7716 5.59081 18.1201 3.95002L18.0701 3.93002ZM18.9001 12.29C18.7046 13.484 18.2408 14.6181 17.5437 15.6069C16.8465 16.5958 15.9342 17.4136 14.8753 17.9989C13.8164 18.5842 12.6385 18.9216 11.4303 18.9859C10.2222 19.0502 9.01515 18.8396 7.90012 18.37C7.50466 18.2018 7.07985 18.1135 6.65012 18.11C6.4624 18.1113 6.2751 18.1281 6.09012 18.16L3.27012 18.73L3.84012 15.91C3.95364 15.2993 3.88046 14.6685 3.63012 14.1C3.16051 12.985 2.94992 11.778 3.01421 10.5698C3.0785 9.36163 3.41598 8.18377 4.00126 7.12487C4.58654 6.06598 5.40438 5.15362 6.39321 4.45647C7.38205 3.75932 8.51614 3.29554 9.71012 3.10002C10.9634 2.89434 12.2476 2.99 13.4566 3.37908C14.6656 3.76817 15.7645 4.43951 16.6626 5.33756C17.5606 6.23561 18.232 7.33457 18.6211 8.54354C19.0101 9.75252 19.1058 11.0367 18.9001 12.29Z" fill="#242424"/>
</svg>
