<svg width="48" height="48" viewBox="0 0 48 48" fill="none" xmlns="http://www.w3.org/2000/svg">
<circle cx="24" cy="24" r="24" fill="#0080FF"/>
<path d="M33.3334 22.6665V23.9998C33.3334 29.1545 29.1547 33.3332 24.0001 33.3332M14.6667 22.6665V23.9998C14.6667 29.1545 18.8454 33.3332 24.0001 33.3332M24.0001 33.3332V37.3332M24.0001 37.3332H28.0001M24.0001 37.3332H20.0001M24.0001 29.3332C21.0546 29.3332 18.6667 26.9454 18.6667 23.9998V15.9998C18.6667 13.0543 21.0546 10.6665 24.0001 10.6665C26.9456 10.6665 29.3334 13.0543 29.3334 15.9998V23.9998C29.3334 26.9454 26.9456 29.3332 24.0001 29.3332Z" stroke="white" stroke-width="1.5" stroke-linecap="round" stroke-linejoin="round"/>
</svg>
