<svg width="24" height="24" viewBox="0 0 24 24" fill="none" xmlns="http://www.w3.org/2000/svg">
<circle cx="12" cy="12" r="12" fill="white"/>
<path d="M9.75 16.2807C10.1563 16.2807 10.5 16.0193 10.5 15.7104V8.3203C10.5 8.01139 10.1563 7.75 9.75 7.75C9.34375 7.75 9 8.01139 9 8.3203V15.7104C9 16.0193 9.34375 16.2807 9.75 16.2807Z" fill="#0080FF"/>
<path d="M14.5 16.2807C14.9062 16.2807 15.25 16.0193 15.25 15.7104V8.3203C15.25 8.01139 14.9062 7.75 14.5 7.75C14.0937 7.75 13.75 8.01139 13.75 8.3203V15.7104C13.75 16.0193 14.0625 16.2807 14.5 16.2807Z" fill="#0080FF"/>
</svg>
