<svg width="24" height="25" viewBox="0 0 24 25" fill="none" xmlns="http://www.w3.org/2000/svg">
<path fill-rule="evenodd" clip-rule="evenodd" d="M15.1188 3.20215H2.45215C2.03793 3.20215 1.70215 3.53793 1.70215 3.95215V20.5395C1.70215 21.6199 2.57804 22.4958 3.6585 22.4958H17.8331C18.9136 22.4958 19.7894 21.6199 19.7894 20.5394V17.3179C20.6541 17.1154 21.298 16.3394 21.298 15.413V13.0003C21.298 11.9691 20.5002 11.1243 19.4882 11.0494V7.57129V6.82129H18.7382H15.8688V3.95215V3.20215H15.1188ZM17.9882 11.0439V8.32129H15.5676H15.1191H14.8176H3.20215V20.5395C3.20215 20.7915 3.40646 20.9958 3.6585 20.9958H17.8331C18.0851 20.9958 18.2894 20.7915 18.2894 20.5394V17.3693H15.1194C14.039 17.3693 13.1631 16.4935 13.1631 15.413V13.0003C13.1631 11.9198 14.039 11.0439 15.1194 11.0439H17.9882ZM3.20215 6.82129V4.70215H14.3688V6.82129H3.20215ZM14.6631 13.0003C14.6631 12.7483 14.8674 12.5439 15.1194 12.5439H19.3417C19.5937 12.5439 19.798 12.7483 19.798 13.0003V15.413C19.798 15.665 19.5937 15.8693 19.3417 15.8693H15.1194C14.8674 15.8693 14.6631 15.665 14.6631 15.413V13.0003Z" fill="#0080FF"/>
</svg>
