<svg width="24" height="24" viewBox="0 0 24 24" fill="none" xmlns="http://www.w3.org/2000/svg">
<rect x="0.5" y="0.5" width="23" height="23" rx="11.5" stroke="#7C7C7C"/>
<path d="M12.3083 11.9539C14.5047 11.9539 16.2852 10.1734 16.2852 7.97696C16.2852 5.78055 14.5047 4 12.3083 4C10.1118 4 8.3313 5.78055 8.3313 7.97696C8.3313 10.1734 10.1118 11.9539 12.3083 11.9539Z" stroke="#7C7C7C" stroke-width="1.37143" stroke-linecap="round" stroke-linejoin="round"/>
<path fill-rule="evenodd" clip-rule="evenodd" d="M6.00001 17.485C5.99896 17.2054 6.06148 16.9292 6.18288 16.6774C6.56381 15.9155 7.63806 15.5117 8.52945 15.3289C9.17232 15.1917 9.82408 15.1 10.4799 15.0546C11.694 14.9479 12.9151 14.9479 14.1292 15.0546C14.785 15.1006 15.4367 15.1922 16.0796 15.3289C16.971 15.5117 18.0453 15.8774 18.4262 16.6774C18.6703 17.1908 18.6703 17.7868 18.4262 18.3002C18.0453 19.1002 16.971 19.4659 16.0796 19.6411C15.4375 19.784 14.7855 19.8782 14.1292 19.923C13.141 20.0068 12.1482 20.022 11.1579 19.9687C10.9294 19.9687 10.7084 19.9687 10.4799 19.923C9.82601 19.8787 9.17652 19.7845 8.53707 19.6411C7.63806 19.4659 6.57143 19.1002 6.18288 18.3002C6.0621 18.0454 5.99964 17.7669 6.00001 17.485Z" stroke="#7C7C7C" stroke-width="1.37143" stroke-linecap="round" stroke-linejoin="round"/>
</svg>
