<svg width="24" height="24" viewBox="0 0 24 24" fill="none" xmlns="http://www.w3.org/2000/svg">
<path d="M11.5748 14.7171L11.1448 14.2777L10.6082 13.7294C10.6081 13.7293 10.608 13.7292 10.608 13.7292C10.4121 13.5299 10.0965 13.5282 9.9006 13.7204L9.90041 13.7206C9.70273 13.9144 9.69968 14.2308 9.8926 14.4279L9.89262 14.4279L11.2901 15.8556L11.2904 15.8559C11.3847 15.9524 11.5138 16.0061 11.6476 16.0061C11.6672 16.0061 11.6815 16.0055 11.6924 16.0045L11.5748 14.7171ZM11.5748 14.7171L11.9173 14.2065M11.5748 14.7171L11.9173 14.2065M11.9173 14.2065L13.5845 11.7216C13.5845 11.7215 13.5846 11.7214 13.5847 11.7213C13.7398 11.491 14.0502 11.431 14.2775 11.5845L14.2787 11.5854M11.9173 14.2065L14.2787 11.5854M14.2787 11.5854C14.5079 11.7391 14.5693 12.0496 14.4154 12.2794C14.4154 12.2794 14.4154 12.2795 14.4154 12.2795L12.0637 15.7841C12.0636 15.7842 12.0635 15.7844 12.0634 15.7845M14.2787 11.5854L12.0634 15.7845M12.0634 15.7845C11.979 15.9093 11.843 15.9902 11.6925 16.0044L12.0634 15.7845Z" fill="black" stroke="#7C7C7C"/>
<path d="M17.5002 2.7901V3.15885L17.8525 3.26778C19.3134 3.71952 20.4356 4.88753 20.8081 6.37895L20.8081 6.37904C21.7272 10.0563 21.7272 13.9438 20.8081 17.621L20.8081 17.6211C20.4153 19.194 19.1952 20.4152 17.6223 20.8079L17.6221 20.8079C15.7838 21.2676 13.8921 21.4971 12.0002 21.4971C10.1083 21.4971 8.21696 21.2676 6.37877 20.8079L6.37856 20.8079C4.80512 20.4152 3.58507 19.194 3.19228 17.6211L3.19226 17.621C2.27315 13.9437 2.27315 10.0562 3.19226 6.37904L3.19228 6.37894C3.58507 4.80608 4.80516 3.58481 6.37807 3.19222L6.37839 3.19214C6.53648 3.15257 6.68915 3.12105 6.85284 3.08727C6.93377 3.07056 7.0174 3.0533 7.1057 3.03424L7.50018 2.94907V2.5455V2C7.50018 1.72361 7.72396 1.5 8.00018 1.5C8.2764 1.5 8.50018 1.72361 8.50018 2V2.1952V2.76278L9.06323 2.69121C11.3384 2.402 13.6531 2.45518 15.916 2.84176L16.5002 2.94156V2.3489V2C16.5002 1.72361 16.724 1.5 17.0002 1.5C17.2764 1.5 17.5002 1.72361 17.5002 2V2.7901ZM6.62077 4.16139L6.62045 4.16147C5.40758 4.46513 4.46565 5.40775 4.1624 6.62095L4.16237 6.62107C4.07836 6.95752 4.01042 7.2954 3.94511 7.62016L3.94499 7.62072L3.81505 8.26688L4.47232 8.21792C9.47529 7.84526 14.5249 7.84526 19.5278 8.21792L20.1849 8.26686L20.0552 7.6209C19.9899 7.29578 19.922 6.9577 19.8378 6.62107C19.5676 5.53905 18.7808 4.7078 17.7783 4.31626L17.5165 4.21404L17.2931 4.38445C17.1865 4.46579 17.0903 4.5 17.0002 4.5C16.7942 4.5 16.6162 4.37533 16.5397 4.19512L16.4354 3.94942L16.1732 3.89937C14.7982 3.63689 13.3999 3.502 12.0002 3.502C10.9556 3.502 9.9147 3.58373 8.88512 3.729L8.54696 3.77672L8.46839 4.10907C8.41236 4.34608 8.21983 4.5 8.00018 4.5C7.84724 4.5 7.70301 4.41997 7.60078 4.26924L7.40907 3.98658L7.07604 4.06236C7.03832 4.07095 6.98569 4.08187 6.92717 4.09402C6.82717 4.11478 6.71001 4.13911 6.62077 4.16139ZM17.3797 19.8386L17.3799 19.8385C18.5927 19.5349 19.5347 18.5923 19.8377 17.3791C20.4655 14.8683 20.6365 12.2575 20.3695 9.69105L20.3264 9.27721L19.9117 9.24436C14.6564 8.82818 9.34418 8.82818 4.08891 9.24436L3.67414 9.27721L3.63107 9.69103C3.36391 12.2575 3.53487 14.8683 4.16261 17.3791C4.46568 18.5924 5.40769 19.5349 6.621 19.8385L6.62117 19.8386C10.1402 20.7179 13.8597 20.7179 17.3797 19.8386Z" fill="black" stroke="#7C7C7C"/>
</svg>
