<svg width="48" height="48" viewBox="0 0 48 48" fill="none" xmlns="http://www.w3.org/2000/svg">
<circle cx="24" cy="24" r="24" fill="#0080FF"/>
<path fill-rule="evenodd" clip-rule="evenodd" d="M11.8157 15.7831C10.3927 12.2258 14.1209 8.79542 17.5477 10.5088L37.0764 20.2732C40.1474 21.8087 40.1474 26.1912 37.0764 27.7267L17.5477 37.4911C14.1209 39.2046 10.3927 35.7742 11.8157 32.2169L15.1024 23.9999L11.8157 15.7831ZM16.8023 11.9995C14.7462 10.9715 12.5094 13.0297 13.3631 15.1641L16.7737 23.6904C16.8531 23.8891 16.8531 24.1107 16.7737 24.3094L13.3631 32.8359C12.5094 34.9702 14.7462 37.0284 16.8023 36.0004L36.3311 26.2361C38.1737 25.3147 38.1737 22.6852 36.3311 21.7639L16.8023 11.9995Z" fill="white"/>
<path fill-rule="evenodd" clip-rule="evenodd" d="M15.1667 23.1665H22.6667V24.8332H15.1667V23.1665Z" fill="white"/>
</svg>
