<svg width="19" height="20" viewBox="0 0 19 20" fill="none" xmlns="http://www.w3.org/2000/svg">
<path fill-rule="evenodd" clip-rule="evenodd" d="M9.50627 0.5C4.26953 0.5 0 4.76349 0 9.99936C0 15.2352 4.27039 19.5039 9.50627 19.5039C14.7421 19.5039 19.0039 15.2352 19.0039 9.99936C19.0039 4.76349 14.7421 0.5 9.50627 0.5ZM9.50627 2.22716C10.5273 2.22545 11.5387 2.42533 12.4823 2.81534C13.426 3.20534 14.2833 3.7778 15.0052 4.49988C15.7272 5.22196 16.2994 6.07945 16.6892 7.02318C17.079 7.96691 17.2787 8.9783 17.2767 9.99936C17.2788 11.0207 17.0793 12.0324 16.6896 12.9765C16.2999 13.9205 15.7277 14.7784 15.0058 15.5009C14.2839 16.2234 13.4266 16.7964 12.4828 17.1869C11.5391 17.5774 10.5276 17.7779 9.50627 17.7767C8.4845 17.778 7.47251 17.5777 6.52825 17.1873C5.584 16.7969 4.72601 16.2241 4.00343 15.5017C3.28085 14.7793 2.70785 13.9214 2.31726 12.9772C1.92666 12.0331 1.72613 11.0211 1.72716 9.99936C1.72716 5.69701 5.20392 2.22716 9.50627 2.22716ZM9.49245 3.94222C9.37831 3.94334 9.26552 3.96708 9.1606 4.01206C9.05569 4.05705 8.96073 4.12239 8.88123 4.2043C8.80172 4.28621 8.73925 4.38307 8.69742 4.48928C8.65558 4.59549 8.63522 4.70894 8.63751 4.82307V9.99936C8.63799 10.113 8.66089 10.2254 8.7049 10.3302C8.74891 10.435 8.81317 10.53 8.89399 10.6099L12.3483 14.066C12.4282 14.1482 12.5237 14.2137 12.6292 14.2586C12.7346 14.3035 12.848 14.327 12.9627 14.3277C13.0773 14.3283 13.191 14.3062 13.2969 14.2624C13.4029 14.2187 13.4992 14.1543 13.58 14.073C13.6608 13.9917 13.7247 13.8951 13.7678 13.7889C13.8109 13.6827 13.8325 13.5689 13.8312 13.4543C13.8298 13.3396 13.8057 13.2264 13.7602 13.1212C13.7147 13.0159 13.6486 12.9208 13.566 12.8414L10.3664 9.64184V4.82307C10.3687 4.70734 10.3478 4.59233 10.3047 4.48486C10.2617 4.3774 10.1976 4.27968 10.116 4.1975C10.0345 4.11533 9.93729 4.05039 9.83017 4.00654C9.72304 3.96268 9.6082 3.94081 9.49245 3.94222Z" fill="#0080FF"/>
</svg>
